<svg width="20" height="20" viewBox="0 0 20 20" fill="none" xmlns="http://www.w3.org/2000/svg">
<path fill-rule="evenodd" clip-rule="evenodd" d="M14.5065 3.89113L4.31799 14.0804C4.22492 14.1735 4.16142 14.2921 4.1356 14.4212V14.4212L3.77479 16.2252L5.57802 15.8645C5.70708 15.8386 5.82565 15.7752 5.91871 15.6821L16.1088 5.49285C16.3095 5.27954 16.4198 4.99672 16.4166 4.70364C16.4132 4.40743 16.2941 4.12428 16.0846 3.91484C15.8751 3.7054 15.5919 3.58631 15.2957 3.58308C15.0026 3.57987 14.7197 3.69036 14.5065 3.89113ZM2.90377 12.6662V12.6662L13.1012 2.46796L13.117 2.45255C13.7087 1.8863 14.4986 1.57425 15.3175 1.5832C16.1365 1.59215 16.9194 1.92139 17.4986 2.50043C18.0778 3.07948 18.4073 3.86228 18.4164 4.68123C18.4256 5.50019 18.1138 6.29018 17.5477 6.88205L17.5321 6.898L7.33299 17.0963V17.0963C6.96074 17.4685 6.48657 17.7223 5.97035 17.8256V17.8256L2.69618 18.4806C2.36831 18.5462 2.02936 18.4436 1.79293 18.2072C1.55649 17.9707 1.45386 17.6318 1.51944 17.3039L2.17444 14.0289C2.27769 13.5127 2.53151 13.0385 2.90377 12.6662Z" fill="#402E25"/>
<path fill-rule="evenodd" clip-rule="evenodd" d="M11.3762 4.7096C11.7668 4.31908 12.3999 4.31908 12.7905 4.7096L15.2905 7.2096C15.681 7.60013 15.681 8.23329 15.2905 8.62382C14.8999 9.01434 14.2668 9.01434 13.8762 8.62382L11.3762 6.12382C10.9857 5.73329 10.9857 5.10013 11.3762 4.7096Z" fill="#402E25"/>
</svg>
