<svg width="19" height="20" viewBox="0 0 19 20" fill="none" xmlns="http://www.w3.org/2000/svg">
<g filter="url(#filter0_i_157:5446)">
<path fill-rule="evenodd" clip-rule="evenodd" d="M18.4434 1.61328H15.5991C15.6012 1.53312 15.6059 1.45494 15.6105 1.37678L15.6105 1.37674L15.6105 1.3767C15.6168 1.27156 15.623 1.16646 15.623 1.05664C15.623 0.744885 15.3782 0.5 15.0664 0.5H3.93359C3.62184 0.5 3.37695 0.744885 3.37695 1.05664C3.37695 1.16624 3.38319 1.27113 3.38943 1.37606L3.38943 1.37607C3.39409 1.45446 3.39875 1.53287 3.40081 1.61328H0.556641C0.248967 1.61328 0 1.86225 0 2.16992V3.58C0 6.68806 2.48974 9.21287 5.55798 9.37541C6.19719 10.2555 6.95582 10.9086 7.81895 11.2766C7.68535 13.9818 6.13789 15.8633 5.77055 16.253C5.71484 16.2975 5.67031 16.3643 5.64805 16.4311H13.352C13.3297 16.3643 13.2852 16.2975 13.2295 16.253C12.851 15.8633 11.3146 13.993 11.1811 11.2766C12.0444 10.9085 12.8076 10.2553 13.4473 9.37486C16.5129 9.20968 19 6.68632 19 3.58V2.16992C19 1.86225 18.751 1.61328 18.4434 1.61328ZM1.11328 3.58V2.72656H3.44857C3.59304 4.56637 3.992 6.51491 4.83053 8.1708C2.72865 7.69747 1.11328 5.82308 1.11328 3.58ZM17.8867 3.58C17.8867 5.82193 16.2728 7.69543 14.1725 8.16984C15.0044 6.51398 15.4055 4.58429 15.5514 2.72656H17.8867V3.58ZM13.352 16.4316H9.5H5.64801C5.61465 16.4984 5.60352 16.5652 5.60352 16.6432V18.3867H5.04688C4.7392 18.3867 4.49023 18.6357 4.49023 18.9434C4.49023 19.251 4.7392 19.5 5.04688 19.5H9.5H13.9531C14.2608 19.5 14.5098 19.251 14.5098 18.9434C14.5098 18.6357 14.2608 18.3867 13.9531 18.3867H13.3965V16.6432C13.3965 16.5652 13.3854 16.4984 13.352 16.4316Z" fill="#402E25"/>
</g>
<defs>
<filter id="filter0_i_157:5446" x="0" y="0.5" width="19" height="20" filterUnits="userSpaceOnUse" color-interpolation-filters="sRGB">
<feFlood flood-opacity="0" result="BackgroundImageFix"/>
<feBlend mode="normal" in="SourceGraphic" in2="BackgroundImageFix" result="shape"/>
<feColorMatrix in="SourceAlpha" type="matrix" values="0 0 0 0 0 0 0 0 0 0 0 0 0 0 0 0 0 0 127 0" result="hardAlpha"/>
<feOffset dy="1"/>
<feGaussianBlur stdDeviation="0.5"/>
<feComposite in2="hardAlpha" operator="arithmetic" k2="-1" k3="1"/>
<feColorMatrix type="matrix" values="0 0 0 0 0 0 0 0 0 0 0 0 0 0 0 0 0 0 1 0"/>
<feBlend mode="normal" in2="shape" result="effect1_innerShadow_157:5446"/>
</filter>
</defs>
</svg>
