<svg width="24" height="24" viewBox="0 0 24 24" fill="none" xmlns="http://www.w3.org/2000/svg">
<path fill-rule="evenodd" clip-rule="evenodd" d="M10 1C9.20435 1 8.44129 1.31607 7.87868 1.87868C7.31607 2.44129 7 3.20435 7 4V6H6C5.20435 6 4.44129 6.31607 3.87868 6.87868C3.31607 7.44129 3 8.20435 3 9V20C3 20.7957 3.31607 21.5587 3.87868 22.1213C4.44129 22.6839 5.20435 23 6 23H14C14.7957 23 15.5587 22.6839 16.1213 22.1213C16.6839 21.5587 17 20.7957 17 20V19H18C18.7957 19 19.5587 18.6839 20.1213 18.1213C20.6839 17.5587 21 16.7957 21 16V7.24188C21 6.84222 20.92 6.4466 20.765 6.07825C20.6099 5.7099 20.3828 5.37624 20.097 5.09688L16.7821 1.855C16.2217 1.30699 15.4689 1.0001 14.685 1H10ZM15 19V20C15 20.2652 14.8946 20.5196 14.7071 20.7071C14.5196 20.8946 14.2652 21 14 21H6C5.73478 21 5.48043 20.8946 5.29289 20.7071C5.10536 20.5196 5 20.2652 5 20V9C5 8.73478 5.10536 8.48043 5.29289 8.29289C5.48043 8.10536 5.73478 8 6 8H7V16C7 16.7957 7.31607 17.5587 7.87868 18.1213C8.44129 18.6839 9.20435 19 10 19H15ZM9 16C9 16.2652 9.10536 16.5196 9.29289 16.7071C9.48043 16.8946 9.73478 17 10 17H18C18.2652 17 18.5196 16.8946 18.7071 16.7071C18.8946 16.5196 19 16.2652 19 16V7.24212C19 7.10894 18.9733 6.97699 18.9217 6.85424C18.87 6.73146 18.7943 6.62024 18.699 6.52712L15.3839 3.285C15.1971 3.1024 14.9462 3.00006 14.685 3H10C9.73478 3 9.48043 3.10536 9.29289 3.29289C9.10536 3.48043 9 3.73478 9 4V16Z" fill="#402E25"/>
</svg>
