<svg width="24" height="24" viewBox="0 0 24 24" fill="none" xmlns="http://www.w3.org/2000/svg">
<g filter="url(#filter0_i_1:2811)">
<path fill-rule="evenodd" clip-rule="evenodd" d="M17.2181 5.10156L13.0381 8.47349C13.0292 8.48063 13.0202 8.48761 13.0111 8.49445C12.7812 8.66734 12.5214 8.7931 12.2535 8.87566C11.985 8.9584 11.7031 8.99945 11.4229 9.00016L11.4204 9.00016H6.4C6.2071 9.00016 6.07116 9.05964 6.00655 9.10764C6.00421 9.10938 6.00203 9.11104 6 9.11262V14.8877C6.0021 14.8893 6.00437 14.891 6.0068 14.8929C6.07129 14.9408 6.2071 15.0003 6.4 15.0003H11.4113C11.696 15.0009 11.9826 15.0431 12.2551 15.1285C12.5269 15.2137 12.7904 15.3436 13.0222 15.5223L13.0386 15.5352L17.2114 18.8937C17.3461 18.9916 17.5933 19.0382 17.8382 18.9642C17.9189 18.9398 17.971 18.9099 18 18.8889V5.11174C17.9715 5.09098 17.9204 5.06151 17.8414 5.03714C17.6024 4.96349 17.3571 5.00542 17.2181 5.10156ZM18.4303 3.12583C19.1271 3.34055 20 3.95495 20 5.04312V18.9573C20 20.0531 19.1171 20.6671 18.4167 20.8787C17.6839 21.1001 16.7343 21.0458 15.9908 20.4782C15.984 20.473 15.9773 20.4677 15.9706 20.4623L11.796 17.1025C11.7707 17.084 11.7255 17.0584 11.6572 17.0371C11.5851 17.0145 11.4996 17.0006 11.4081 17.0003H6.4C5.8201 17.0003 5.25591 16.8267 4.81359 16.4979C4.37132 16.1691 4 15.636 4 14.9593V9.04018C4 8.36337 4.37188 7.83054 4.81385 7.50219C5.25604 7.17368 5.8201 7.00016 6.4 7.00016H11.4189C11.5089 6.99983 11.5931 6.98636 11.6645 6.96435C11.7294 6.94436 11.774 6.92042 11.8007 6.90199L15.9823 3.52879C15.9925 3.52056 16.0029 3.51254 16.0134 3.50472C16.7586 2.95043 17.7014 2.90122 18.4303 3.12583Z" fill="#402E25"/>
</g>
<defs>
<filter id="filter0_i_1:2811" x="4" y="3.00049" width="16" height="18.999" filterUnits="userSpaceOnUse" color-interpolation-filters="sRGB">
<feFlood flood-opacity="0" result="BackgroundImageFix"/>
<feBlend mode="normal" in="SourceGraphic" in2="BackgroundImageFix" result="shape"/>
<feColorMatrix in="SourceAlpha" type="matrix" values="0 0 0 0 0 0 0 0 0 0 0 0 0 0 0 0 0 0 127 0" result="hardAlpha"/>
<feOffset dy="1"/>
<feGaussianBlur stdDeviation="0.5"/>
<feComposite in2="hardAlpha" operator="arithmetic" k2="-1" k3="1"/>
<feColorMatrix type="matrix" values="0 0 0 0 0 0 0 0 0 0 0 0 0 0 0 0 0 0 1 0"/>
<feBlend mode="normal" in2="shape" result="effect1_innerShadow_1:2811"/>
</filter>
</defs>
</svg>
