<svg width="24" height="24" viewBox="0 0 24 24" fill="none" xmlns="http://www.w3.org/2000/svg">
<path fill-rule="evenodd" clip-rule="evenodd" d="M20 13.3715V5.04312C20 3.95495 19.1271 3.34055 18.4303 3.12583C17.7014 2.90122 16.7586 2.95043 16.0134 3.50472C16.0029 3.51254 15.9925 3.52056 15.9823 3.52879L11.8007 6.90199C11.774 6.92042 11.7293 6.94436 11.6645 6.96435C11.593 6.98636 11.5089 6.99983 11.4189 7.00016H10.1582L4.9526 3.63022L3.86572 5.30912L21.3457 16.6252L22.4326 14.9463L20 13.3715ZM17.218 5.10156L13.038 8.47349C13.0292 8.48063 13.0202 8.48761 13.0111 8.49445C12.9241 8.55984 12.8329 8.6185 12.7385 8.67062L18 12.0767V5.11174C17.9714 5.09098 17.9204 5.06151 17.8413 5.03714C17.6023 4.96349 17.357 5.00542 17.218 5.10156Z" fill="#3D2C23"/>
<path d="M4.53866 7.74466C4.22776 8.06897 3.99997 8.51047 3.99997 9.04018V14.9593C3.99997 15.636 4.37129 16.1691 4.81357 16.4979C5.25588 16.8267 5.82007 17.0003 6.39997 17.0003H11.4081C11.4996 17.0006 11.5851 17.0145 11.6572 17.0371C11.7255 17.0584 11.7707 17.084 11.796 17.1025L15.9706 20.4623L15.9834 20.4725L15.9908 20.4782C16.7343 21.0458 17.6839 21.1001 18.4167 20.8787C19.1171 20.6671 20 20.0531 20 18.9573V17.7539L18 16.4591V18.8889C17.971 18.9099 17.9189 18.9398 17.8382 18.9642C17.5932 19.0382 17.346 18.9916 17.2114 18.8937L13.0386 15.5352L13.0222 15.5223C12.7903 15.3436 12.5269 15.2137 12.255 15.1285C11.9825 15.0431 11.696 15.0009 11.4113 15.0003H6.39997C6.20707 15.0003 6.07126 14.9408 6.00678 14.8929L5.99997 14.8877V9.11262L6.00652 9.10764L4.53866 7.74466Z" fill="#3D2C23"/>
</svg>
