<svg width="21" height="21" viewBox="0 0 21 21" fill="none" xmlns="http://www.w3.org/2000/svg">
<path fill-rule="evenodd" clip-rule="evenodd" d="M10.0174 4C7.95408 4 6.11985 4.98411 4.69977 6.08742C3.26942 7.1987 2.15328 8.51293 1.5039 9.36038C1.17687 9.78273 1 10.3009 1 10.8333C1 11.3658 1.17687 11.8839 1.5039 12.3063C2.15328 13.1537 3.26942 14.468 4.69977 15.5793C6.11985 16.6826 7.95408 17.6667 10.0174 17.6667C12.0807 17.6667 13.9149 16.6826 15.335 15.5793C16.7667 14.4669 17.8837 13.1511 18.5328 12.3038C19.2019 11.4299 19.2007 10.2366 18.5327 9.36278C17.8835 8.51541 16.7667 7.19975 15.335 6.08742C13.9149 4.98411 12.0807 4 10.0174 4ZM3.10433 10.5739C3.69938 9.79709 4.69707 8.62859 5.94017 7.66279C7.19487 6.68797 8.59565 6 10.0174 6C11.4391 6 12.8399 6.68797 14.0946 7.66279C15.3372 8.62827 16.3347 9.79633 16.9298 10.5731C17.0517 10.7325 17.051 10.9351 16.9303 11.0929C16.3352 11.8697 15.3376 13.0381 14.0946 14.0039C12.8399 14.9787 11.4391 15.6667 10.0174 15.6667C8.59565 15.6667 7.19487 14.9787 5.94017 14.0039C4.69707 13.0381 3.6994 11.8696 3.10434 11.0928L3.10019 11.0874C3.04433 11.0155 3.01339 10.9261 3.01339 10.8333C3.01339 10.7405 3.04435 10.6512 3.10021 10.5793L3.10433 10.5739Z" fill="white"/>
<path fill-rule="evenodd" clip-rule="evenodd" d="M10.017 9.33318C9.19855 9.33318 8.52365 9.99845 8.52365 10.8332C8.52365 11.6679 9.19855 12.3332 10.017 12.3332C10.8354 12.3332 11.5103 11.6679 11.5103 10.8332C11.5103 9.99845 10.8354 9.33318 10.017 9.33318ZM6.51026 10.8332C6.51026 8.90648 8.07394 7.33318 10.017 7.33318C11.96 7.33318 13.5236 8.90648 13.5236 10.8332C13.5236 12.7599 11.96 14.3332 10.017 14.3332C8.07394 14.3332 6.51026 12.7599 6.51026 10.8332Z" fill="white"/>
</svg>
