<svg width="24" height="24" viewBox="0 0 24 24" fill="none" xmlns="http://www.w3.org/2000/svg">
<path d="M23.9229 10.618C23.8719 10.495 23.799 10.3849 23.706 10.2919L20.7069 7.29294C20.316 6.90196 19.6839 6.90196 19.293 7.29294C18.902 7.68392 18.902 8.31594 19.293 8.70692L20.586 9.99992H18V0.999936C17.9999 0.447984 17.5529 0 16.9999 0H0.999983C0.963983 0 0.931967 0.015 0.896998 0.0189843C0.848998 0.024 0.806999 0.0319687 0.761014 0.0439687C0.656999 0.0699842 0.56203 0.110953 0.473999 0.166968C0.452015 0.180984 0.423984 0.181968 0.402984 0.197953C0.394968 0.204 0.391968 0.215015 0.383952 0.221015C0.274968 0.306984 0.183984 0.411984 0.117984 0.536999C0.103969 0.563999 0.100969 0.593014 0.0899998 0.620999C0.0579843 0.696983 0.0230156 0.770999 0.0110156 0.854998C0.00599999 0.884998 0.015 0.912983 0.0140156 0.941998C0.0130312 0.962014 0 0.980014 0 0.999982V21C0 21.477 0.336984 21.887 0.803999 21.98L10.804 23.98C10.869 23.994 10.935 24 10.9999 24C11.2289 24 11.4539 23.921 11.6339 23.773C11.8649 23.583 11.9999 23.3 11.9999 23V22H16.9999C17.5529 22 17.9999 21.552 17.9999 21V12H20.5859L19.2929 13.293C18.9019 13.684 18.9019 14.316 19.2929 14.707C19.4879 14.902 19.7439 15 19.9999 15C20.256 15 20.5119 14.902 20.7069 14.707L23.706 11.7079C23.799 11.6149 23.8719 11.5049 23.9229 11.3819C24.0239 11.138 24.0239 10.862 23.9229 10.618ZM8.96994 15.243C8.85594 15.697 8.44892 16 8.00094 16C7.92092 16 7.83894 15.991 7.75794 15.97L5.75793 15.4699C5.22191 15.3359 4.89594 14.7929 5.02991 14.257C5.1629 13.722 5.70393 13.393 6.24191 13.53L8.24192 14.03C8.77794 14.164 9.10395 14.707 8.96994 15.243ZM16 20H12V3.99998C12 3.55898 11.71 3.16898 11.287 3.04199L7.81395 2.00001H16V20Z" fill="#402E25"/>
</svg>
