<svg width="20" height="20" viewBox="0 0 20 20" fill="none" xmlns="http://www.w3.org/2000/svg">
<path fill-rule="evenodd" clip-rule="evenodd" d="M10.0001 1.5C10.5524 1.5 11.0001 1.94772 11.0001 2.5V10.0858L12.6263 8.45956C13.0168 8.06904 13.65 8.06904 14.0405 8.45956C14.431 8.85008 14.431 9.48325 14.0405 9.87377L10.7075 13.2068C10.7074 13.2069 10.7076 13.2067 10.7075 13.2068C10.7068 13.2075 10.7058 13.2085 10.7051 13.2092C10.6097 13.304 10.4999 13.3757 10.3829 13.4241C10.265 13.473 10.1357 13.5 10.0001 13.5C9.86448 13.5 9.7352 13.473 9.61729 13.4241C9.49935 13.3753 9.38884 13.303 9.29297 13.2071L5.95963 9.87377C5.56911 9.48325 5.56911 8.85008 5.95963 8.45956C6.35016 8.06904 6.98332 8.06904 7.37385 8.45956L9.00007 10.0858V2.5C9.00007 1.94772 9.44779 1.5 10.0001 1.5Z" fill="white"/>
<path d="M2.63691 13.9242C2.50301 13.3884 1.9601 13.0626 1.4243 13.1965C0.888489 13.3304 0.562677 13.8733 0.696575 14.4091L1.21409 16.48C1.35829 17.0569 1.69119 17.5691 2.15986 17.9351C2.62854 18.3011 3.20625 18.4999 3.80091 18.5H16.1994C16.794 18.4999 17.3716 18.3011 17.8403 17.9351C18.309 17.5691 18.6419 17.0569 18.7861 16.4799L19.3036 14.4091C19.4375 13.8733 19.1117 13.3304 18.5759 13.1965C18.3637 13.1435 18.1505 13.1625 17.962 13.2381C17.6743 13.3535 17.4441 13.6005 17.3632 13.9242L16.8458 15.995C16.8097 16.1392 16.7265 16.2673 16.6093 16.3588C16.4922 16.4502 16.3479 16.4999 16.1992 16.5H3.80091C3.6523 16.4999 3.50796 16.4502 3.39084 16.3588C3.27368 16.2673 3.19045 16.1392 3.15439 15.995L2.63691 13.9242Z" fill="white"/>
</svg>
